<svg width="11" height="9" viewBox="0 0 11 9" fill="none" xmlns="http://www.w3.org/2000/svg">
<path d="M8.48572 1.15321C8.65853 0.987808 8.88848 0.896366 9.12707 0.898181C9.36566 0.899996 9.59421 0.994926 9.76451 1.16294C9.9348 1.33095 10.0335 1.55891 10.0398 1.7987C10.0461 2.0385 9.95953 2.27138 9.79831 2.44821L4.90371 8.60252C4.81955 8.69366 4.71797 8.7668 4.60505 8.81757C4.49213 8.86834 4.37018 8.89569 4.2465 8.898C4.12283 8.9003 3.99996 8.8775 3.88524 8.83097C3.77053 8.78444 3.66632 8.71513 3.57886 8.62719L0.332973 5.3638C0.24258 5.27911 0.170079 5.17699 0.119793 5.06353C0.0695077 4.95006 0.0424684 4.82758 0.0402888 4.70338C0.0381092 4.57918 0.0608339 4.45581 0.107107 4.34063C0.15338 4.22545 0.222253 4.12082 0.309618 4.03299C0.396984 3.94515 0.50105 3.87591 0.615611 3.82938C0.730172 3.78286 0.852879 3.76001 0.976413 3.76221C1.09995 3.7644 1.22178 3.79158 1.33463 3.84214C1.44749 3.8927 1.54906 3.96559 1.63329 4.05647L4.20203 6.63783L8.46242 1.18034C8.47009 1.17085 8.47828 1.16179 8.48695 1.15321H8.48572Z" fill="#F4F4FD"/>
</svg>
